<svg xmlns="http://www.w3.org/2000/svg" width="1024" height="1024" viewBox="0 0 1024 1024" version="1.1"><path d="M 252 221.296 L 252 316.783 242.063 337.121 C 236.597 348.307, 232.299 357.632, 232.511 357.844 C 232.723 358.056, 237.419 348.883, 242.948 337.459 L 253 316.689 253 222.344 C 253 170.455, 253.232 128, 253.515 128 C 255.047 128, 271.539 138.408, 289.507 150.713 C 319.757 171.429, 353.338 201.818, 387.896 239.750 C 393.033 245.387, 397.535 250, 397.901 250 C 398.887 250, 382.917 232.904, 363.027 212.669 C 333.200 182.325, 312.484 164.916, 282 144.580 C 271.825 137.792, 260.913 130.792, 257.750 129.024 L 252 125.809 252 221.296 M 420.500 253.532 C 421.910 254.060, 466.552 260.974, 472 261.508 L 476.500 261.950 472.150 261.010 C 465.831 259.645, 422.958 252.986, 421.086 253.079 C 420.214 253.122, 419.950 253.326, 420.500 253.532 M 480.500 263.046 C 490.024 264.990, 532.275 271.058, 532.779 270.554 C 533.084 270.249, 532.826 270, 532.206 270 C 531.586 270, 519.474 268.201, 505.289 266.003 C 481.674 262.343, 470.556 261.017, 480.500 263.046 M 537.500 272.057 C 539.700 272.512, 542.625 272.857, 544 272.824 C 546.278 272.769, 546.233 272.695, 543.500 272 C 541.850 271.580, 538.925 271.235, 537 271.233 L 533.500 271.230 537.500 272.057 M 554 274.563 C 558.125 275.284, 562.625 275.846, 564 275.811 C 565.375 275.777, 563.125 275.158, 559 274.437 C 554.875 273.716, 550.375 273.154, 549 273.189 C 547.625 273.223, 549.875 273.842, 554 274.563 M 579.500 278.517 C 583.350 279.246, 587.850 279.827, 589.500 279.809 C 591.150 279.791, 589.350 279.179, 585.500 278.449 C 581.650 277.720, 577.150 277.138, 575.500 277.157 C 573.850 277.176, 575.650 277.788, 579.500 278.517 M 593.083 280.392 C 593.789 281.055, 628.052 286.149, 629.211 285.763 C 629.810 285.563, 622.245 284.179, 612.400 282.686 C 594.143 279.917, 592.352 279.704, 593.083 280.392 M 660.500 291.057 C 665.566 292.105, 669.659 292.058, 665.500 291 C 663.850 290.580, 661.150 290.235, 659.500 290.233 C 656.978 290.231, 657.137 290.362, 660.500 291.057 M 670.516 292.945 C 671.626 293.395, 678.433 302.479, 685.644 313.131 C 692.856 323.784, 703.954 340.150, 710.307 349.500 C 730.233 378.827, 775.794 446.112, 801.750 484.544 C 811.237 498.592, 818.990 510.628, 818.978 511.293 C 818.949 512.934, 783.937 557.400, 774.770 567.439 C 773.797 568.505, 773 569.772, 773 570.254 C 773 571.454, 786.344 555.393, 804.706 532.094 C 813.118 521.420, 820 512.052, 820 511.275 C 820 509.822, 803.148 484.609, 738.271 389 C 714.251 353.600, 692.109 320.946, 680.805 304.250 C 674.701 295.235, 671.981 292.017, 670.505 292.063 C 668.506 292.127, 668.506 292.129, 670.516 292.945 M 210.742 400.766 C 181.439 460.060, 165 494.120, 165 495.536 C 165 496.609, 171.445 513.260, 200.013 586 C 203.793 595.625, 212.255 617.225, 218.817 634 C 238.351 683.935, 239.227 686.106, 239.682 685.651 C 239.922 685.411, 237.206 677.854, 233.646 668.857 C 230.086 659.861, 220.202 634.725, 211.680 613 C 188.107 552.903, 185.528 546.344, 175.400 520.725 C 170.230 507.649, 166 496.377, 166 495.678 C 166 494.391, 204.530 414.793, 222.409 379.142 C 227.749 368.496, 231.949 359.615, 231.742 359.409 C 231.535 359.202, 222.085 377.813, 210.742 400.766 M 596.670 399.750 C 595.762 401.268, 591.859 416.192, 592.264 416.597 C 592.494 416.827, 593.700 413.299, 594.943 408.758 C 596.187 404.216, 597.721 400.169, 598.352 399.765 C 599.203 399.221, 599.192 399.027, 598.309 399.015 C 597.654 399.007, 596.916 399.337, 596.670 399.750 M 600.083 400.389 C 600.897 401.150, 649.201 410.099, 650.341 409.701 C 650.978 409.478, 649.475 408.955, 647 408.540 C 644.525 408.124, 633.355 406.032, 622.178 403.892 C 602.293 400.084, 599.238 399.599, 600.083 400.389 M 657 411.562 C 660.025 412.299, 664.300 413.131, 666.500 413.412 C 668.700 413.692, 667.125 413.057, 663 412.001 C 658.875 410.946, 654.600 410.113, 653.500 410.152 C 652.400 410.190, 653.975 410.824, 657 411.562 M 675.156 417 C 677.779 425.296, 690.565 459.805, 690.778 459.165 C 691.177 457.970, 676.463 417.093, 675.240 416 C 674.933 415.725, 674.895 416.175, 675.156 417 M 592.037 427.294 C 592.818 428.186, 620.220 438.113, 620.667 437.666 C 620.874 437.459, 615.072 435.128, 607.772 432.486 C 591.264 426.511, 591.386 426.552, 592.037 427.294 M 622.055 438.312 C 622.877 439.247, 636.189 444.144, 636.651 443.682 C 636.869 443.464, 634.225 442.260, 630.774 441.007 C 621.558 437.659, 621.451 437.626, 622.055 438.312 M 638 444.232 C 638.275 444.523, 645.250 447.237, 653.500 450.264 C 675.156 458.211, 681.101 460.233, 681.534 459.799 C 681.745 459.588, 672.824 456.132, 661.709 452.118 C 640.617 444.503, 637.170 443.356, 638 444.232 M 771.099 578.024 C 766.786 600.371, 757.734 640.750, 756.714 642.188 C 756.046 643.130, 745.600 651.460, 733.500 660.700 L 711.500 677.498 704.500 678.088 L 697.500 678.677 704.135 678.838 L 710.770 679 719.635 672.330 C 760.491 641.594, 758.395 643.554, 760.307 634.281 C 761.189 630.002, 764.422 614.623, 767.491 600.108 C 770.560 585.592, 772.909 573.227, 772.710 572.631 C 772.512 572.035, 771.787 574.462, 771.099 578.024 M 561.500 669.477 C 571.400 670.202, 582.425 670.773, 586 670.747 C 591.526 670.706, 591.076 670.589, 583 669.966 C 577.775 669.564, 566.750 668.992, 558.500 668.697 L 543.500 668.160 561.500 669.477 M 542 670.267 C 542 670.519, 547.623 673.962, 554.495 677.918 C 564.646 683.762, 567.101 685.617, 567.582 687.806 C 568.543 692.174, 568.837 692.650, 568.921 689.973 C 569.039 686.182, 566.696 683.566, 559.762 679.752 C 556.318 677.857, 550.913 674.844, 547.750 673.058 C 544.587 671.271, 542 670.015, 542 670.267 M 596.750 671.723 C 598.538 671.945, 601.462 671.945, 603.250 671.723 C 605.038 671.502, 603.575 671.320, 600 671.320 C 596.425 671.320, 594.962 671.502, 596.750 671.723 M 617.500 673.053 C 622.450 673.457, 629.200 673.766, 632.500 673.739 C 637.806 673.696, 637.516 673.604, 630 672.944 C 625.325 672.534, 618.575 672.225, 615 672.258 C 609.020 672.312, 609.220 672.376, 617.500 673.053 M 642.768 674.725 C 644.565 674.947, 647.265 674.943, 648.768 674.715 C 650.271 674.486, 648.800 674.304, 645.500 674.310 C 642.200 674.315, 640.971 674.502, 642.768 674.725 M 655.768 675.725 C 657.565 675.947, 660.265 675.943, 661.768 675.715 C 663.271 675.486, 661.800 675.304, 658.500 675.310 C 655.200 675.315, 653.971 675.502, 655.768 675.725 M 668.776 676.733 C 671.128 676.945, 674.728 676.942, 676.776 676.727 C 678.824 676.512, 676.900 676.339, 672.500 676.343 C 668.100 676.346, 666.424 676.522, 668.776 676.733 M 684.776 677.733 C 687.128 677.945, 690.728 677.942, 692.776 677.727 C 694.824 677.512, 692.900 677.339, 688.500 677.343 C 684.100 677.346, 682.424 677.522, 684.776 677.733 M 240.610 689 C 240.951 690.375, 242.416 693.975, 243.865 697 C 246.980 703.501, 244.031 701.835, 283.500 719.407 C 337.088 743.267, 387.959 766.003, 413.500 777.509 C 427.250 783.703, 447.275 792.694, 458 797.488 C 468.725 802.282, 479.516 807.117, 481.980 808.232 C 484.443 809.347, 495.918 814.505, 507.480 819.695 C 519.041 824.885, 531.875 830.666, 536 832.542 C 584.756 854.709, 605 863.607, 605 862.870 C 605 861.254, 594.864 813.530, 594.428 813.095 C 593.583 812.250, 594.069 814.945, 598.925 838.049 C 601.634 850.938, 603.743 861.590, 603.612 861.721 C 603.481 861.853, 596.427 858.782, 587.937 854.898 C 579.446 851.014, 564.625 844.318, 555 840.017 C 545.375 835.717, 527.825 827.830, 516 822.491 C 504.175 817.153, 486.175 809.062, 476 804.512 C 450.561 793.137, 348.762 747.385, 342 744.289 C 338.975 742.903, 329.525 738.721, 321 734.994 C 299.967 725.799, 254.292 705.320, 250.111 703.210 C 247.608 701.947, 246.096 700.061, 244.332 696 C 243.018 692.975, 241.504 689.600, 240.966 688.500 C 240.128 686.784, 240.078 686.855, 240.610 689 M 569.100 693.685 C 568.977 695.141, 575.200 725.769, 587.043 782 C 588.722 789.975, 590.832 800.078, 591.731 804.452 C 592.630 808.825, 593.517 811.949, 593.702 811.393 C 593.888 810.837, 591.968 800.509, 589.436 788.441 C 581.379 750.033, 578.016 733.924, 574.521 717 C 570.481 697.440, 569.236 692.084, 569.100 693.685" stroke="none" fill="#5a872c" fill-rule="evenodd"/><path d="M 253 222.524 C 253 274.396, 252.728 317.546, 252.395 318.412 C 252.063 319.279, 251.393 319.743, 250.907 319.442 C 250.421 319.142, 250.319 319.668, 250.681 320.612 C 251.125 321.769, 250.962 322.095, 250.181 321.612 C 249.401 321.130, 249.238 321.456, 249.681 322.612 C 250.125 323.769, 249.962 324.095, 249.181 323.612 C 248.401 323.130, 248.238 323.456, 248.681 324.612 C 249.125 325.769, 248.962 326.095, 248.181 325.612 C 247.401 325.130, 247.238 325.456, 247.681 326.612 C 248.125 327.769, 247.962 328.095, 247.181 327.612 C 246.401 327.130, 246.238 327.456, 246.681 328.612 C 247.125 329.769, 246.962 330.095, 246.181 329.612 C 245.401 329.130, 245.238 329.456, 245.681 330.612 C 246.164 331.868, 245.985 332.109, 245.015 331.510 C 244.174 330.990, 243.931 331.079, 244.349 331.755 C 245.281 333.264, 244.001 336.119, 242.741 335.340 C 242.163 334.983, 241.982 335.161, 242.337 335.736 C 243.181 337.102, 238.666 347.333, 237.662 346.329 C 237.240 345.907, 237.220 346.409, 237.617 347.445 C 238.117 348.746, 237.982 349.107, 237.181 348.612 C 236.401 348.130, 236.238 348.456, 236.681 349.612 C 237.125 350.769, 236.962 351.095, 236.181 350.612 C 235.401 350.130, 235.238 350.456, 235.681 351.612 C 236.125 352.769, 235.962 353.095, 235.181 352.612 C 234.401 352.130, 234.238 352.456, 234.681 353.612 C 235.125 354.769, 234.962 355.095, 234.181 354.612 C 233.426 354.145, 233.229 354.433, 233.615 355.440 C 233.964 356.348, 233.550 357.236, 232.609 357.596 C 231.731 357.934, 231.235 358.572, 231.509 359.015 C 232.255 360.222, 230.924 363.071, 229.907 362.442 C 229.421 362.142, 229.319 362.668, 229.681 363.612 C 230.125 364.769, 229.962 365.095, 229.181 364.612 C 228.401 364.130, 228.238 364.456, 228.681 365.612 C 229.125 366.769, 228.962 367.095, 228.181 366.612 C 227.401 366.130, 227.238 366.456, 227.681 367.612 C 228.125 368.769, 227.962 369.095, 227.181 368.612 C 226.401 368.130, 226.238 368.456, 226.681 369.612 C 227.125 370.769, 226.962 371.095, 226.181 370.612 C 225.401 370.130, 225.238 370.456, 225.681 371.612 C 226.125 372.769, 225.962 373.095, 225.181 372.612 C 224.401 372.130, 224.238 372.456, 224.681 373.612 C 225.125 374.769, 224.962 375.095, 224.181 374.612 C 223.401 374.130, 223.238 374.456, 223.681 375.612 C 224.125 376.769, 223.962 377.095, 223.181 376.612 C 222.401 376.130, 222.238 376.456, 222.681 377.612 C 223.125 378.769, 222.962 379.095, 222.181 378.612 C 221.401 378.130, 221.238 378.456, 221.681 379.612 C 222.125 380.769, 221.962 381.095, 221.181 380.612 C 220.401 380.130, 220.238 380.456, 220.681 381.612 C 221.125 382.769, 220.962 383.095, 220.181 382.612 C 219.401 382.130, 219.238 382.456, 219.681 383.612 C 220.125 384.769, 219.962 385.095, 219.181 384.612 C 218.401 384.130, 218.238 384.456, 218.681 385.612 C 219.125 386.769, 218.962 387.095, 218.181 386.612 C 217.401 386.130, 217.238 386.456, 217.681 387.612 C 218.125 388.769, 217.962 389.095, 217.181 388.612 C 216.401 388.130, 216.238 388.456, 216.681 389.612 C 217.125 390.769, 216.962 391.095, 216.181 390.612 C 215.401 390.130, 215.238 390.456, 215.681 391.612 C 216.125 392.769, 215.962 393.095, 215.181 392.612 C 214.401 392.130, 214.238 392.456, 214.681 393.612 C 215.125 394.769, 214.962 395.095, 214.181 394.612 C 213.401 394.130, 213.238 394.456, 213.681 395.612 C 214.125 396.769, 213.962 397.095, 213.181 396.612 C 212.401 396.130, 212.238 396.456, 212.681 397.612 C 213.125 398.769, 212.962 399.095, 212.181 398.612 C 211.401 398.130, 211.238 398.456, 211.681 399.612 C 212.125 400.769, 211.962 401.095, 211.181 400.612 C 210.401 400.130, 210.238 400.456, 210.681 401.612 C 211.125 402.769, 210.962 403.095, 210.181 402.612 C 209.401 402.130, 209.238 402.456, 209.681 403.612 C 210.164 404.868, 209.985 405.109, 209.015 404.510 C 208.174 403.990, 207.931 404.079, 208.349 404.755 C 209.281 406.264, 208.001 409.119, 206.741 408.340 C 206.154 407.977, 205.985 408.167, 206.358 408.771 C 207.201 410.133, 205 415.118, 203.865 414.417 C 203.402 414.130, 203.319 414.668, 203.681 415.612 C 204.164 416.868, 203.985 417.109, 203.015 416.510 C 202.184 415.995, 201.931 416.080, 202.337 416.736 C 203.181 418.102, 198.666 428.333, 197.662 427.329 C 197.240 426.907, 197.220 427.409, 197.617 428.445 C 198.117 429.746, 197.982 430.107, 197.181 429.612 C 196.401 429.130, 196.238 429.456, 196.681 430.612 C 197.164 431.868, 196.985 432.109, 196.015 431.510 C 195.167 430.985, 194.931 431.079, 195.358 431.771 C 196.201 433.133, 194 438.118, 192.865 437.417 C 192.402 437.130, 192.319 437.668, 192.681 438.612 C 193.125 439.769, 192.962 440.095, 192.181 439.612 C 191.401 439.130, 191.238 439.456, 191.681 440.612 C 192.125 441.769, 191.962 442.095, 191.181 441.612 C 190.401 441.130, 190.238 441.456, 190.681 442.612 C 191.125 443.769, 190.962 444.095, 190.181 443.612 C 189.401 443.130, 189.238 443.456, 189.681 444.612 C 190.125 445.769, 189.962 446.095, 189.181 445.612 C 188.401 445.130, 188.238 445.456, 188.681 446.612 C 189.125 447.769, 188.962 448.095, 188.181 447.612 C 187.401 447.130, 187.238 447.456, 187.681 448.612 C 188.125 449.769, 187.962 450.095, 187.181 449.612 C 186.401 449.130, 186.238 449.456, 186.681 450.612 C 187.125 451.769, 186.962 452.095, 186.181 451.612 C 185.401 451.130, 185.238 451.456, 185.681 452.612 C 186.164 453.868, 185.985 454.109, 185.015 453.510 C 184.163 452.983, 183.931 453.079, 184.364 453.780 C 185.239 455.195, 182.061 463.156, 180.905 462.442 C 180.420 462.142, 180.319 462.668, 180.681 463.612 C 181.125 464.769, 180.962 465.095, 180.181 464.612 C 179.401 464.130, 179.238 464.456, 179.681 465.612 C 180.125 466.769, 179.962 467.095, 179.181 466.612 C 178.401 466.130, 178.238 466.456, 178.681 467.612 C 179.125 468.769, 178.962 469.095, 178.181 468.612 C 177.401 468.130, 177.238 468.456, 177.681 469.612 C 178.125 470.769, 177.962 471.095, 177.181 470.612 C 176.401 470.130, 176.238 470.456, 176.681 471.612 C 177.125 472.769, 176.962 473.095, 176.181 472.612 C 175.401 472.130, 175.238 472.456, 175.681 473.612 C 176.125 474.769, 175.962 475.095, 175.181 474.612 C 174.401 474.130, 174.238 474.456, 174.681 475.612 C 175.125 476.769, 174.962 477.095, 174.181 476.612 C 173.401 476.130, 173.238 476.456, 173.681 477.612 C 174.125 478.769, 173.962 479.095, 173.181 478.612 C 172.401 478.130, 172.238 478.456, 172.681 479.612 C 173.125 480.769, 172.962 481.095, 172.181 480.612 C 171.401 480.130, 171.238 480.456, 171.681 481.612 C 172.125 482.769, 171.962 483.095, 171.181 482.612 C 170.401 482.130, 170.238 482.456, 170.681 483.612 C 171.125 484.769, 170.962 485.095, 170.181 484.612 C 169.401 484.130, 169.238 484.456, 169.681 485.612 C 170.164 486.868, 169.985 487.109, 169.015 486.510 C 168.143 485.970, 167.930 486.078, 168.392 486.825 C 168.777 487.448, 168.551 488.970, 167.890 490.206 C 166.100 493.550, 164.985 499.127, 166.264 498.337 C 166.930 497.925, 167.108 498.478, 166.751 499.845 C 166.386 501.241, 166.566 501.768, 167.263 501.337 C 167.951 500.912, 168.102 501.292, 167.681 502.388 C 167.290 503.407, 167.424 503.856, 168.011 503.493 C 168.913 502.936, 169.386 504.530, 169.270 507.739 C 169.246 508.421, 169.625 508.732, 170.113 508.430 C 170.926 507.927, 171.383 509.626, 171.270 512.739 C 171.246 513.421, 171.696 513.688, 172.270 513.333 C 172.929 512.926, 173.107 513.485, 172.751 514.845 C 172.386 516.241, 172.566 516.768, 173.263 516.337 C 173.951 515.912, 174.102 516.292, 173.681 517.388 C 173.241 518.536, 173.402 518.869, 174.169 518.396 C 174.949 517.914, 175.135 518.377, 174.751 519.845 C 174.389 521.228, 174.569 521.766, 175.251 521.345 C 175.933 520.924, 176.112 521.462, 175.751 522.845 C 175.386 524.241, 175.566 524.768, 176.263 524.337 C 176.951 523.912, 177.102 524.292, 176.681 525.388 C 176.290 526.407, 176.424 526.856, 177.011 526.493 C 177.913 525.936, 178.386 527.530, 178.270 530.739 C 178.246 531.421, 178.696 531.688, 179.270 531.333 C 179.929 530.926, 180.107 531.485, 179.751 532.845 C 179.386 534.241, 179.566 534.768, 180.263 534.337 C 180.951 533.912, 181.102 534.292, 180.681 535.388 C 180.241 536.536, 180.402 536.869, 181.169 536.396 C 181.949 535.914, 182.135 536.377, 181.751 537.845 C 181.386 539.241, 181.566 539.768, 182.263 539.337 C 182.951 538.912, 183.102 539.292, 182.681 540.388 C 182.319 541.332, 182.431 541.851, 182.931 541.543 C 184.125 540.805, 186.355 547.617, 185.417 549.135 C 184.963 549.869, 185.123 550.042, 185.845 549.595 C 186.917 548.933, 187.394 550.318, 187.270 553.739 C 187.246 554.421, 187.593 554.752, 188.041 554.475 C 189.155 553.786, 190.303 557.701, 189.410 559.146 C 188.932 559.919, 189.130 560.038, 190.003 559.498 C 190.980 558.894, 191.171 559.238, 190.751 560.845 C 190.440 562.032, 190.562 562.771, 191.021 562.487 C 192.150 561.789, 193.312 565.686, 192.410 567.146 C 191.930 567.923, 192.131 568.037, 193.015 567.490 C 193.985 566.891, 194.164 567.132, 193.681 568.388 C 193.241 569.536, 193.402 569.869, 194.169 569.396 C 194.949 568.914, 195.135 569.377, 194.751 570.845 C 194.386 572.241, 194.566 572.768, 195.263 572.337 C 195.951 571.912, 196.102 572.292, 195.681 573.388 C 195.241 574.536, 195.402 574.869, 196.169 574.396 C 196.949 573.914, 197.135 574.377, 196.751 575.845 C 196.440 577.032, 196.562 577.771, 197.021 577.487 C 198.150 576.789, 199.312 580.686, 198.410 582.146 C 197.980 582.842, 198.126 583.040, 198.773 582.640 C 200.084 581.830, 201.421 585.510, 200.410 587.146 C 199.932 587.919, 200.130 588.038, 201.003 587.498 C 201.980 586.894, 202.171 587.238, 201.751 588.845 C 201.386 590.241, 201.566 590.768, 202.263 590.337 C 202.951 589.912, 203.102 590.292, 202.681 591.388 C 202.241 592.536, 202.402 592.869, 203.169 592.396 C 203.949 591.914, 204.135 592.377, 203.751 593.845 C 203.386 595.241, 203.566 595.768, 204.263 595.337 C 204.951 594.912, 205.102 595.292, 204.681 596.388 C 204.241 597.536, 204.402 597.869, 205.169 597.396 C 205.949 596.914, 206.135 597.377, 205.751 598.845 C 205.440 600.032, 205.562 600.771, 206.021 600.487 C 207.150 599.789, 208.312 603.686, 207.410 605.146 C 206.930 605.923, 207.131 606.037, 208.015 605.490 C 208.985 604.891, 209.164 605.132, 208.681 606.388 C 208.241 607.536, 208.402 607.869, 209.169 607.396 C 209.949 606.914, 210.135 607.377, 209.751 608.845 C 209.440 610.032, 209.562 610.771, 210.021 610.487 C 211.150 609.789, 212.312 613.686, 211.410 615.146 C 210.932 615.919, 211.130 616.038, 212.003 615.498 C 212.980 614.894, 213.171 615.238, 212.751 616.845 C 212.386 618.241, 212.566 618.768, 213.263 618.337 C 213.951 617.912, 214.102 618.292, 213.681 619.388 C 213.241 620.536, 213.402 620.869, 214.169 620.396 C 214.949 619.914, 215.135 620.377, 214.751 621.845 C 214.440 623.032, 214.562 623.771, 215.021 623.487 C 216.150 622.789, 217.312 626.686, 216.410 628.146 C 215.980 628.842, 216.126 629.040, 216.773 628.640 C 218.084 627.830, 219.421 631.510, 218.410 633.146 C 217.980 633.842, 218.126 634.040, 218.773 633.640 C 220.084 632.830, 221.421 636.510, 220.410 638.146 C 219.980 638.842, 220.126 639.040, 220.773 638.640 C 222.084 637.830, 223.421 641.510, 222.410 643.146 C 221.932 643.919, 222.130 644.038, 223.003 643.498 C 223.980 642.894, 224.171 643.238, 223.751 644.845 C 223.440 646.032, 223.562 646.771, 224.021 646.487 C 225.150 645.789, 226.312 649.686, 225.410 651.146 C 224.963 651.870, 225.127 652.040, 225.845 651.595 C 226.917 650.933, 227.394 652.318, 227.270 655.739 C 227.246 656.421, 227.593 656.752, 228.041 656.475 C 229.155 655.786, 230.303 659.701, 229.410 661.146 C 228.980 661.842, 229.126 662.040, 229.773 661.640 C 231.102 660.819, 232.406 664.501, 231.404 666.241 C 231.006 666.933, 231.050 667.164, 231.502 666.754 C 232.565 665.791, 236.235 673.944, 235.547 675.739 C 235.259 676.490, 235.386 676.879, 235.830 676.605 C 236.956 675.909, 239.286 682.728, 238.408 684.149 C 237.930 684.923, 238.132 685.037, 239.015 684.490 C 239.977 683.896, 240.165 684.128, 239.701 685.336 C 239.350 686.252, 239.546 687, 240.138 687 C 240.730 687, 240.946 687.698, 240.618 688.552 C 240.277 689.442, 240.445 689.843, 241.011 689.493 C 241.913 688.936, 242.386 690.530, 242.270 693.739 C 242.246 694.421, 242.625 694.732, 243.113 694.430 C 243.926 693.927, 244.383 695.626, 244.270 698.739 C 244.246 699.421, 244.655 699.713, 245.180 699.389 C 245.704 699.065, 245.991 699.632, 245.817 700.650 C 245.634 701.719, 246.028 702.394, 246.752 702.249 C 248.498 701.900, 255.102 705.565, 254.254 706.413 C 253.873 706.794, 254.409 706.780, 255.445 706.383 C 256.856 705.841, 257.123 705.992, 256.510 706.985 C 255.963 707.869, 256.077 708.070, 256.854 707.590 C 258.373 706.651, 262.197 707.872, 261.463 709.061 C 261.150 709.566, 261.666 709.682, 262.612 709.319 C 263.769 708.875, 264.095 709.038, 263.612 709.819 C 263.130 710.599, 263.456 710.762, 264.612 710.319 C 265.868 709.836, 266.109 710.015, 265.510 710.985 C 264.997 711.814, 265.080 712.069, 265.731 711.666 C 267.134 710.799, 273.141 712.963, 272.447 714.086 C 272.144 714.576, 272.668 714.681, 273.612 714.319 C 274.769 713.875, 275.095 714.038, 274.612 714.819 C 274.130 715.599, 274.456 715.762, 275.612 715.319 C 276.769 714.875, 277.095 715.038, 276.612 715.819 C 276.130 716.599, 276.456 716.762, 277.612 716.319 C 278.708 715.898, 279.088 716.049, 278.663 716.737 C 278.232 717.434, 278.759 717.614, 280.155 717.249 C 281.623 716.865, 282.086 717.051, 281.604 717.831 C 281.131 718.598, 281.464 718.759, 282.612 718.319 C 283.868 717.836, 284.109 718.015, 283.510 718.985 C 283.005 719.802, 283.080 720.068, 283.708 719.681 C 285.050 718.851, 293.096 722.036, 292.420 723.129 C 292.132 723.596, 292.668 723.681, 293.612 723.319 C 294.868 722.836, 295.109 723.015, 294.510 723.985 C 293.997 724.814, 294.080 725.069, 294.731 724.666 C 296.264 723.719, 302.114 726.006, 301.344 727.252 C 300.985 727.833, 301.161 728.018, 301.736 727.663 C 302.969 726.901, 313.383 731.283, 312.482 732.185 C 312.144 732.523, 312.459 732.774, 313.183 732.742 C 316.420 732.601, 318.071 733.077, 317.507 733.989 C 317.144 734.576, 317.593 734.710, 318.612 734.319 C 319.868 733.836, 320.109 734.015, 319.510 734.985 C 318.994 735.819, 319.080 736.069, 319.742 735.659 C 321.087 734.828, 327.279 737.388, 326.297 738.370 C 325.892 738.774, 326.409 738.780, 327.445 738.383 C 328.746 737.883, 329.107 738.018, 328.612 738.819 C 328.130 739.599, 328.456 739.762, 329.612 739.319 C 330.868 738.836, 331.109 739.015, 330.510 739.985 C 329.950 740.889, 330.076 741.071, 330.906 740.558 C 332.398 739.636, 338.184 741.893, 337.435 743.105 C 337.139 743.584, 337.668 743.681, 338.612 743.319 C 339.769 742.875, 340.095 743.038, 339.612 743.819 C 339.165 744.542, 339.410 744.780, 340.264 744.452 C 341.938 743.810, 347.247 746.419, 346.265 747.401 C 345.878 747.789, 346.409 747.780, 347.445 747.383 C 348.746 746.883, 349.107 747.018, 348.612 747.819 C 348.130 748.599, 348.456 748.762, 349.612 748.319 C 350.868 747.836, 351.109 748.015, 350.510 748.985 C 349.950 749.889, 350.076 750.071, 350.906 749.558 C 352.398 748.636, 358.184 750.893, 357.435 752.105 C 357.139 752.584, 357.668 752.681, 358.612 752.319 C 359.868 751.836, 360.109 752.015, 359.510 752.985 C 358.997 753.814, 359.080 754.069, 359.731 753.666 C 361.134 752.799, 367.141 754.963, 366.447 756.086 C 366.144 756.576, 366.668 756.681, 367.612 756.319 C 368.868 755.836, 369.109 756.015, 368.510 756.985 C 367.997 757.814, 368.080 758.069, 368.731 757.666 C 370.134 756.799, 376.141 758.963, 375.447 760.086 C 375.144 760.576, 375.668 760.681, 376.612 760.319 C 377.769 759.875, 378.095 760.038, 377.612 760.819 C 377.130 761.599, 377.456 761.762, 378.612 761.319 C 379.868 760.836, 380.109 761.015, 379.510 761.985 C 378.950 762.889, 379.076 763.071, 379.906 762.558 C 381.398 761.636, 387.184 763.893, 386.435 765.105 C 386.139 765.584, 386.668 765.681, 387.612 765.319 C 388.692 764.904, 389.086 765.052, 388.675 765.717 C 388.316 766.299, 388.579 766.754, 389.261 766.730 C 392.470 766.614, 394.064 767.087, 393.507 767.989 C 393.144 768.576, 393.593 768.710, 394.612 768.319 C 395.769 767.875, 396.095 768.038, 395.612 768.819 C 395.130 769.599, 395.456 769.762, 396.612 769.319 C 397.769 768.875, 398.095 769.038, 397.612 769.819 C 397.130 770.599, 397.456 770.762, 398.612 770.319 C 399.868 769.836, 400.109 770.015, 399.510 770.985 C 398.963 771.869, 399.077 772.070, 399.854 771.590 C 401.373 770.651, 405.197 771.872, 404.463 773.061 C 404.150 773.566, 404.666 773.682, 405.612 773.319 C 406.769 772.875, 407.095 773.038, 406.612 773.819 C 406.130 774.599, 406.456 774.762, 407.612 774.319 C 408.692 773.904, 409.086 774.052, 408.675 774.717 C 408.316 775.299, 408.579 775.754, 409.261 775.730 C 412.470 775.614, 414.064 776.087, 413.507 776.989 C 413.144 777.576, 413.593 777.710, 414.612 777.319 C 415.769 776.875, 416.095 777.038, 415.612 777.819 C 415.130 778.599, 415.456 778.762, 416.612 778.319 C 417.868 777.836, 418.109 778.015, 417.510 778.985 C 416.997 779.814, 417.080 780.069, 417.731 779.666 C 419.134 778.799, 425.141 780.963, 424.447 782.086 C 424.144 782.576, 424.668 782.681, 425.612 782.319 C 426.868 781.836, 427.109 782.015, 426.510 782.985 C 425.983 783.837, 426.079 784.069, 426.780 783.636 C 428.195 782.761, 436.156 785.939, 435.442 787.095 C 435.142 787.580, 435.668 787.681, 436.612 787.319 C 437.868 786.836, 438.109 787.015, 437.510 787.985 C 436.997 788.814, 437.080 789.069, 437.731 788.666 C 439.134 787.799, 445.141 789.963, 444.447 791.086 C 444.144 791.576, 444.668 791.681, 445.612 791.319 C 446.769 790.875, 447.095 791.038, 446.612 791.819 C 446.130 792.599, 446.456 792.762, 447.612 792.319 C 448.868 791.836, 449.109 792.015, 448.510 792.985 C 447.963 793.869, 448.077 794.070, 448.854 793.590 C 450.373 792.651, 454.197 793.872, 453.463 795.061 C 453.150 795.566, 453.666 795.682, 454.612 795.319 C 455.769 794.875, 456.095 795.038, 455.612 795.819 C 455.130 796.599, 455.456 796.762, 456.612 796.319 C 457.769 795.875, 458.095 796.038, 457.612 796.819 C 457.130 797.599, 457.456 797.762, 458.612 797.319 C 459.692 796.904, 460.086 797.052, 459.675 797.717 C 459.316 798.299, 459.579 798.754, 460.261 798.730 C 463.470 798.614, 465.064 799.087, 464.507 799.989 C 464.144 800.576, 464.593 800.710, 465.612 800.319 C 466.769 799.875, 467.095 800.038, 466.612 800.819 C 466.130 801.599, 466.456 801.762, 467.612 801.319 C 468.769 800.875, 469.095 801.038, 468.612 801.819 C 468.130 802.599, 468.456 802.762, 469.612 802.319 C 470.868 801.836, 471.109 802.015, 470.510 802.985 C 469.963 803.869, 470.077 804.070, 470.854 803.590 C 472.373 802.651, 476.197 803.872, 475.463 805.061 C 475.150 805.566, 475.666 805.682, 476.612 805.319 C 477.708 804.898, 478.088 805.049, 477.663 805.737 C 477.232 806.434, 477.759 806.614, 479.155 806.249 C 480.762 805.829, 481.106 806.020, 480.502 806.997 C 479.989 807.826, 480.082 808.067, 480.755 807.651 C 482.154 806.787, 485.145 807.957, 484.442 809.093 C 484.142 809.579, 484.668 809.681, 485.612 809.319 C 486.769 808.875, 487.095 809.038, 486.612 809.819 C 486.130 810.599, 486.456 810.762, 487.612 810.319 C 488.868 809.836, 489.109 810.015, 488.510 810.985 C 487.963 811.869, 488.077 812.070, 488.854 811.590 C 490.373 810.651, 494.197 811.872, 493.463 813.061 C 493.150 813.566, 493.666 813.682, 494.612 813.319 C 495.769 812.875, 496.095 813.038, 495.612 813.819 C 495.130 814.599, 495.456 814.762, 496.612 814.319 C 497.692 813.904, 498.086 814.052, 497.675 814.717 C 497.316 815.299, 497.579 815.754, 498.261 815.730 C 501.470 815.614, 503.064 816.087, 502.507 816.989 C 502.144 817.576, 502.593 817.710, 503.612 817.319 C 504.769 816.875, 505.095 817.038, 504.612 817.819 C 504.130 818.599, 504.456 818.762, 505.612 818.319 C 506.769 817.875, 507.095 818.038, 506.612 818.819 C 506.130 819.599, 506.456 819.762, 507.612 819.319 C 508.868 818.836, 509.109 819.015, 508.510 819.985 C 507.963 820.869, 508.077 821.070, 508.854 820.590 C 510.373 819.651, 514.197 820.872, 513.463 822.061 C 513.150 822.566, 513.666 822.682, 514.612 822.319 C 515.868 821.836, 516.109 822.015, 515.510 822.985 C 514.983 823.837, 515.079 824.069, 515.780 823.636 C 517.195 822.761, 525.156 825.939, 524.442 827.095 C 524.142 827.580, 524.668 827.681, 525.612 827.319 C 526.769 826.875, 527.095 827.038, 526.612 827.819 C 526.130 828.599, 526.456 828.762, 527.612 828.319 C 528.868 827.836, 529.109 828.015, 528.510 828.985 C 527.963 829.869, 528.077 830.070, 528.854 829.590 C 530.373 828.651, 534.197 829.872, 533.463 831.061 C 533.150 831.566, 533.666 831.682, 534.612 831.319 C 535.769 830.875, 536.095 831.038, 535.612 831.819 C 535.130 832.599, 535.456 832.762, 536.612 832.319 C 537.868 831.836, 538.109 832.015, 537.510 832.985 C 536.994 833.819, 537.080 834.069, 537.742 833.659 C 539.087 832.828, 545.279 835.388, 544.297 836.370 C 543.892 836.774, 544.409 836.780, 545.445 836.383 C 546.746 835.883, 547.107 836.018, 546.612 836.819 C 546.130 837.599, 546.456 837.762, 547.612 837.319 C 548.868 836.836, 549.109 837.015, 548.510 837.985 C 547.963 838.869, 548.077 839.070, 548.854 838.590 C 550.373 837.651, 554.197 838.872, 553.463 840.061 C 553.150 840.566, 553.666 840.682, 554.612 840.319 C 555.769 839.875, 556.095 840.038, 555.612 840.819 C 555.130 841.599, 555.456 841.762, 556.612 841.319 C 557.868 840.836, 558.109 841.015, 557.510 841.985 C 556.963 842.869, 557.077 843.070, 557.854 842.590 C 559.373 841.651, 563.197 842.872, 562.463 844.061 C 562.150 844.566, 562.666 844.682, 563.612 844.319 C 564.769 843.875, 565.095 844.038, 564.612 844.819 C 564.130 845.599, 564.456 845.762, 565.612 845.319 C 566.868 844.836, 567.109 845.015, 566.510 845.985 C 565.997 846.814, 566.080 847.069, 566.731 846.666 C 568.134 845.799, 574.141 847.963, 573.447 849.086 C 573.144 849.576, 573.668 849.681, 574.612 849.319 C 575.769 848.875, 576.095 849.038, 575.612 849.819 C 575.130 850.599, 575.456 850.762, 576.612 850.319 C 577.868 849.836, 578.109 850.015, 577.510 850.985 C 576.997 851.814, 577.080 852.069, 577.731 851.666 C 579.134 850.799, 585.141 852.963, 584.447 854.086 C 584.144 854.576, 584.668 854.681, 585.612 854.319 C 586.868 853.836, 587.109 854.015, 586.510 854.985 C 585.997 855.814, 586.080 856.069, 586.731 855.666 C 588.134 854.799, 594.141 856.963, 593.447 858.086 C 593.144 858.576, 593.668 858.681, 594.612 858.319 C 595.769 857.875, 596.095 858.038, 595.612 858.819 C 595.130 859.599, 595.456 859.762, 596.612 859.319 C 597.868 858.836, 598.109 859.015, 597.510 859.985 C 596.970 860.857, 597.078 861.070, 597.825 860.608 C 598.448 860.223, 599.925 860.425, 601.107 861.057 C 602.790 861.958, 603.440 861.914, 604.112 860.853 C 605.356 858.890, 605.167 857.223, 603.902 859 C 603.102 860.124, 602.973 859.497, 603.389 856.500 C 603.801 853.529, 603.672 852.886, 602.889 854 C 602.106 855.114, 601.977 854.471, 602.389 851.500 C 602.705 849.222, 602.587 848.070, 602.116 848.825 C 601.023 850.576, 598.665 838.722, 599.509 835.717 C 600.016 833.908, 599.922 833.776, 598.995 835 C 598.087 836.198, 597.937 835.857, 598.248 833.303 C 598.476 831.438, 598.241 830.351, 597.685 830.695 C 597.125 831.040, 596.919 830.007, 597.185 828.195 C 597.434 826.496, 597.309 825.309, 596.908 825.557 C 595.884 826.190, 594.675 818.335, 595.573 816.882 C 596.068 816.080, 595.881 815.956, 594.998 816.501 C 593.978 817.131, 593.830 816.601, 594.329 814.106 C 594.784 811.832, 594.638 811.106, 593.829 811.606 C 593.015 812.109, 592.876 811.333, 593.343 808.905 C 593.839 806.325, 593.735 805.864, 592.916 807 C 592.098 808.134, 591.970 807.523, 592.389 804.500 C 592.801 801.529, 592.672 800.886, 591.889 802 C 591.106 803.114, 590.977 802.471, 591.389 799.500 C 591.713 797.158, 591.594 796.059, 591.102 796.849 C 589.993 798.626, 588.654 791.766, 589.512 788.706 C 590.020 786.897, 589.924 786.770, 588.983 788 C 588.081 789.178, 587.954 788.640, 588.389 785.500 C 588.737 782.987, 588.614 782.027, 588.058 782.919 C 587.434 783.920, 586.970 782.984, 586.484 779.740 C 586.104 777.211, 586.135 774.591, 586.552 773.916 C 587.065 773.086, 586.893 772.948, 586.020 773.488 C 585.044 774.091, 584.841 773.534, 585.185 771.195 C 585.434 769.496, 585.306 768.311, 584.900 768.562 C 583.807 769.237, 582.751 763.400, 583.491 760.772 C 584.013 758.919, 583.919 758.776, 582.983 760 C 582.081 761.178, 581.954 760.640, 582.389 757.500 C 582.795 754.567, 582.667 753.900, 581.907 755 C 581.128 756.128, 580.959 755.587, 581.226 752.820 C 581.434 750.673, 581.188 749.384, 580.635 749.726 C 580.064 750.079, 579.948 748.960, 580.343 746.905 C 580.839 744.325, 580.735 743.864, 579.916 745 C 579.098 746.134, 578.970 745.523, 579.389 742.500 C 579.797 739.554, 579.669 738.895, 578.901 740 C 578.105 741.145, 577.951 740.743, 578.248 738.303 C 578.463 736.544, 578.292 735.319, 577.870 735.581 C 576.910 736.174, 575.605 729.866, 575.545 724.345 C 575.518 721.864, 575.165 720.656, 574.667 721.345 C 574.201 721.991, 574.079 720.738, 574.389 718.500 C 574.801 715.529, 574.672 714.886, 573.889 716 C 573.106 717.114, 572.977 716.471, 573.389 713.500 C 573.797 710.554, 573.669 709.895, 572.901 711 C 572.105 712.145, 571.951 711.743, 572.248 709.303 C 572.476 707.438, 572.241 706.351, 571.685 706.695 C 571.125 707.040, 570.919 706.007, 571.185 704.195 C 571.457 702.338, 571.249 701.346, 570.663 701.708 C 570.057 702.083, 569.935 701.023, 570.343 698.905 C 570.839 696.325, 570.735 695.864, 569.916 697 C 569.093 698.141, 568.960 697.597, 569.358 694.728 C 569.712 692.180, 569.533 691.171, 568.806 691.620 C 568.096 692.059, 567.885 691.236, 568.185 689.195 C 568.434 687.496, 568.239 686.352, 567.752 686.653 C 567.265 686.954, 567.009 686.368, 567.183 685.350 C 567.371 684.254, 566.974 683.607, 566.209 683.764 C 564.332 684.147, 560.844 682.061, 561.524 680.961 C 561.852 680.431, 561.357 680.309, 560.388 680.681 C 559.231 681.125, 558.905 680.962, 559.388 680.181 C 559.870 679.401, 559.544 679.238, 558.388 679.681 C 557.207 680.134, 556.902 679.967, 557.410 679.145 C 557.816 678.488, 557.778 678.051, 557.324 678.173 C 555.737 678.602, 551.976 676.847, 552.537 675.939 C 552.850 675.434, 552.334 675.318, 551.388 675.681 C 550.207 676.134, 549.902 675.967, 550.410 675.145 C 550.816 674.488, 550.778 674.051, 550.324 674.173 C 548.737 674.602, 544.976 672.847, 545.537 671.939 C 545.849 671.435, 545.451 671.273, 544.653 671.580 C 542.705 672.327, 541.378 670.008, 543.122 668.904 C 543.880 668.423, 548.100 668.055, 552.500 668.086 C 556.900 668.116, 559.680 668.464, 558.678 668.859 C 557.676 669.253, 561.501 669.448, 567.178 669.292 C 573.081 669.129, 576.687 669.355, 575.602 669.819 C 574.511 670.285, 577.700 670.496, 583.102 670.314 C 589.336 670.105, 591.827 670.306, 590.500 670.913 C 589.211 671.501, 591.612 671.627, 597.250 671.265 C 602.543 670.925, 606 671.081, 606 671.659 C 606 672.226, 609.772 672.465, 615.250 672.245 C 620.337 672.042, 623.978 672.242, 623.340 672.691 C 622.702 673.140, 625.852 673.396, 630.340 673.262 C 635.893 673.095, 637.861 673.309, 636.500 673.932 C 635.195 674.528, 637.454 674.671, 643 674.342 C 648.938 673.989, 651.060 674.144, 650.040 674.857 C 649.022 675.568, 650.963 675.697, 656.446 675.283 C 661.054 674.934, 664.079 675.063, 663.751 675.594 C 663.427 676.117, 666.847 676.373, 671.845 676.200 C 676.868 676.026, 679.976 676.260, 679.252 676.758 C 678.528 677.256, 681.886 677.508, 687.252 677.358 C 693.225 677.192, 695.438 677.382, 693.500 677.896 C 691.541 678.415, 694.192 678.658, 701.142 678.596 C 706.995 678.543, 711.580 678.163, 711.333 677.750 C 711.085 677.337, 711.359 676.944, 711.941 676.875 C 712.523 676.806, 713.413 676.694, 713.917 676.625 C 714.421 676.556, 715.208 676.090, 715.667 675.590 C 716.158 675.053, 715.884 674.992, 715 675.441 C 714.175 675.860, 715.067 674.920, 716.982 673.352 C 718.897 671.783, 721.147 670.499, 721.982 670.499 C 722.817 670.498, 723.501 669.823, 723.503 668.999 C 723.504 668.169, 724.396 667.499, 725.503 667.499 C 726.601 667.498, 727.500 666.919, 727.500 666.212 C 727.500 664.602, 730.083 662.933, 731.357 663.720 C 731.881 664.044, 732.002 663.812, 731.627 663.205 C 730.991 662.176, 733.676 660.010, 735.167 660.349 C 735.533 660.432, 736.208 660.090, 736.667 659.590 C 737.157 659.055, 736.882 658.982, 736 659.414 C 735.175 659.818, 735.354 659.454, 736.397 658.606 C 737.441 657.758, 738.748 657.344, 739.302 657.687 C 739.856 658.029, 740.019 657.840, 739.666 657.268 C 738.874 655.987, 741.306 653.825, 743.099 654.215 C 743.820 654.372, 744.430 653.921, 744.455 653.214 C 744.512 651.590, 747.094 649.940, 748.357 650.720 C 748.881 651.044, 749.002 650.812, 748.627 650.205 C 747.999 649.189, 750.110 647.450, 752.500 647.015 C 753.050 646.915, 753.725 646.574, 754 646.256 C 754.275 645.939, 753.825 646.043, 753 646.486 C 751.858 647.101, 751.767 647.003, 752.619 646.077 C 753.235 645.409, 754.583 644.737, 755.615 644.586 C 756.646 644.435, 757.537 643.678, 757.593 642.905 C 757.987 637.492, 758.001 637.454, 758.987 639 C 759.644 640.031, 759.770 639.248, 759.389 636.500 C 758.977 633.529, 759.106 632.886, 759.889 634 C 760.672 635.114, 760.801 634.471, 760.389 631.500 C 759.970 628.477, 760.098 627.866, 760.916 629 C 761.735 630.136, 761.839 629.675, 761.343 627.095 C 760.935 624.977, 761.057 623.917, 761.663 624.292 C 762.249 624.654, 762.457 623.662, 762.185 621.805 C 761.908 619.918, 762.117 618.954, 762.721 619.328 C 763.320 619.698, 763.514 618.906, 763.211 617.321 C 762.916 615.779, 763.106 614.948, 763.674 615.299 C 764.247 615.652, 764.454 614.639, 764.185 612.805 C 763.919 610.993, 764.125 609.960, 764.685 610.305 C 765.244 610.651, 765.451 609.617, 765.185 607.805 C 764.919 605.993, 765.125 604.960, 765.685 605.305 C 766.241 605.649, 766.476 604.562, 766.248 602.697 C 765.946 600.222, 766.100 599.839, 766.928 601 C 767.732 602.128, 767.835 601.655, 767.343 599.095 C 766.935 596.977, 767.057 595.917, 767.663 596.292 C 768.246 596.652, 768.481 595.609, 768.248 593.697 C 767.951 591.257, 768.105 590.855, 768.901 592 C 769.665 593.099, 769.775 592.456, 769.316 589.595 C 768.924 587.158, 769.055 585.916, 769.663 586.292 C 770.246 586.652, 770.481 585.609, 770.248 583.697 C 769.951 581.257, 770.105 580.855, 770.901 582 C 771.669 583.105, 771.797 582.446, 771.389 579.500 C 770.970 576.477, 771.098 575.866, 771.916 577 C 772.735 578.136, 772.839 577.675, 772.343 575.095 C 771.842 572.490, 771.985 571.873, 772.951 572.470 C 773.873 573.040, 774.039 572.699, 773.566 571.209 C 773.195 570.039, 773.429 568.853, 774.114 568.430 C 774.919 567.932, 775.045 568.118, 774.500 569 C 773.961 569.873, 774.081 570.068, 774.862 569.585 C 775.506 569.187, 775.772 568.439, 775.453 567.923 C 774.847 566.944, 777.749 563.500, 779.179 563.500 C 779.630 563.500, 780.044 563.050, 780.099 562.500 C 780.279 560.666, 782.048 558.017, 782.930 558.260 C 783.408 558.392, 783.894 558.050, 784.010 557.500 C 784.487 555.226, 788.232 551.025, 789.231 551.643 C 789.824 552.009, 790.033 551.863, 789.696 551.317 C 788.830 549.915, 791.911 545.827, 793.223 546.638 C 793.820 547.007, 794.057 546.902, 793.750 546.404 C 793.442 545.906, 794.322 544.149, 795.705 542.500 C 797.088 540.850, 797.873 540.175, 797.449 541 C 796.995 541.885, 797.053 542.158, 797.590 541.667 C 798.090 541.208, 798.556 540.421, 798.625 539.917 C 798.694 539.412, 798.806 538.523, 798.875 537.941 C 798.944 537.359, 799.563 537.206, 800.250 537.601 C 800.938 537.997, 801.178 537.964, 800.785 537.529 C 799.948 536.601, 802.585 532.500, 804.019 532.500 C 804.559 532.500, 804.924 532.275, 804.831 532 C 804.392 530.701, 807.229 527.024, 808.205 527.627 C 808.812 528.002, 809.050 527.889, 808.733 527.377 C 808.416 526.864, 809.060 525.332, 810.165 523.972 C 811.270 522.612, 811.840 522.132, 811.432 522.905 C 810.939 523.839, 811.083 524.067, 811.862 523.585 C 812.506 523.187, 812.830 522.534, 812.582 522.133 C 811.964 521.133, 813.690 518.500, 814.964 518.500 C 815.534 518.500, 815.924 518.275, 815.831 518 C 815.449 516.870, 818.167 512.985, 818.986 513.491 C 819.496 513.806, 819.513 512.789, 819.027 511.095 C 818.563 509.475, 818.479 507.820, 818.841 507.415 C 819.204 507.010, 818.938 507.003, 818.250 507.399 C 817.125 508.046, 816.540 506.913, 816.882 504.750 C 816.947 504.337, 816.438 504.112, 815.750 504.250 C 815.063 504.387, 814.562 503.717, 814.637 502.761 C 814.712 501.804, 814.375 501.268, 813.887 501.570 C 813.066 502.078, 812.570 500.614, 812.906 498.676 C 812.985 498.222, 812.588 498.136, 812.025 498.485 C 811.088 499.064, 810.552 497.718, 810.906 495.676 C 810.985 495.222, 810.588 495.136, 810.025 495.485 C 809.088 496.064, 808.552 494.718, 808.906 492.676 C 808.985 492.222, 808.611 492.122, 808.075 492.454 C 807.029 493.100, 804.760 489.685, 805.535 488.631 C 805.791 488.284, 805.703 488.222, 805.340 488.494 C 804.344 489.238, 801.790 485.149, 802.516 483.973 C 802.864 483.411, 802.553 483.074, 801.824 483.225 C 801.092 483.377, 800.561 482.723, 800.637 481.761 C 800.712 480.804, 800.398 480.254, 799.937 480.539 C 798.988 481.125, 796.821 477.601, 797.535 476.631 C 797.791 476.284, 797.696 476.229, 797.325 476.508 C 796.353 477.240, 792.999 471.811, 793.711 470.658 C 794.040 470.126, 793.790 470.012, 793.155 470.405 C 792.106 471.052, 791.536 469.806, 791.906 467.676 C 791.985 467.222, 791.588 467.136, 791.025 467.485 C 790.088 468.064, 789.552 466.718, 789.906 464.676 C 789.985 464.222, 789.588 464.136, 789.025 464.485 C 788.088 465.064, 787.552 463.718, 787.906 461.676 C 787.985 461.222, 787.588 461.136, 787.025 461.485 C 786.105 462.053, 785.564 460.761, 785.882 458.750 C 785.947 458.338, 785.437 458.113, 784.750 458.250 C 784.062 458.388, 783.560 457.730, 783.632 456.789 C 783.705 455.848, 783.255 455.173, 782.632 455.289 C 782.010 455.405, 781.560 454.730, 781.632 453.789 C 781.705 452.848, 781.255 452.173, 780.632 452.289 C 780.010 452.405, 779.562 451.717, 779.637 450.761 C 779.712 449.804, 779.424 449.238, 778.996 449.502 C 777.958 450.144, 774.764 445.191, 775.475 444.041 C 775.782 443.544, 775.506 442.813, 774.862 442.415 C 774.083 441.933, 773.939 442.161, 774.432 443.095 C 774.840 443.868, 774.245 443.375, 773.109 442 C 771.103 439.571, 770.610 438.380, 770.906 436.676 C 770.985 436.222, 770.588 436.136, 770.025 436.485 C 769.105 437.053, 768.564 435.761, 768.882 433.750 C 768.947 433.338, 768.437 433.113, 767.750 433.250 C 767.062 433.388, 766.562 432.717, 766.637 431.761 C 766.712 430.804, 766.375 430.268, 765.887 430.570 C 765.066 431.078, 764.570 429.614, 764.906 427.676 C 764.985 427.222, 764.588 427.136, 764.025 427.485 C 763.088 428.064, 762.552 426.718, 762.906 424.676 C 762.985 424.222, 762.638 424.106, 762.134 424.417 C 760.948 425.150, 757.725 420.254, 758.533 418.947 C 758.872 418.399, 758.553 418.074, 757.824 418.225 C 757.096 418.376, 756.560 417.730, 756.632 416.789 C 756.705 415.848, 756.255 415.173, 755.632 415.289 C 755.010 415.405, 754.560 414.730, 754.632 413.789 C 754.705 412.848, 754.255 412.173, 753.632 412.289 C 753.010 412.405, 752.494 411.744, 752.487 410.821 C 752.480 409.897, 752.071 408.772, 751.577 408.321 C 751.057 407.846, 750.994 408.132, 751.426 409 C 751.837 409.825, 751.245 409.375, 750.109 408 C 748.103 405.571, 747.610 404.380, 747.906 402.676 C 747.985 402.222, 747.588 402.136, 747.025 402.485 C 746.088 403.064, 745.552 401.718, 745.906 399.676 C 745.985 399.222, 745.588 399.136, 745.025 399.485 C 744.088 400.064, 743.552 398.718, 743.906 396.676 C 743.985 396.222, 743.588 396.136, 743.025 396.485 C 742.105 397.053, 741.564 395.761, 741.882 393.750 C 741.947 393.338, 741.437 393.113, 740.750 393.250 C 740.062 393.388, 739.562 392.717, 739.637 391.761 C 739.712 390.804, 739.375 390.268, 738.887 390.570 C 738.082 391.067, 737.580 389.659, 737.882 387.750 C 737.947 387.338, 737.437 387.113, 736.750 387.250 C 736.062 387.388, 735.560 386.730, 735.632 385.789 C 735.705 384.848, 735.255 384.173, 734.632 384.289 C 734.010 384.405, 733.560 383.730, 733.632 382.789 C 733.705 381.848, 733.255 381.173, 732.632 381.289 C 732.010 381.405, 731.562 380.717, 731.637 379.761 C 731.712 378.804, 731.424 378.238, 730.996 378.502 C 730.097 379.058, 726.667 374.163, 726.667 372.325 C 726.667 371.645, 726.292 371.320, 725.833 371.603 C 725.057 372.083, 724.577 370.569, 724.906 368.676 C 724.985 368.222, 724.588 368.136, 724.025 368.485 C 723.105 369.053, 722.564 367.761, 722.882 365.750 C 722.947 365.338, 722.437 365.113, 721.750 365.250 C 721.062 365.388, 720.562 364.717, 720.637 363.761 C 720.712 362.804, 720.424 362.238, 719.996 362.502 C 719.097 363.058, 715.667 358.163, 715.667 356.325 C 715.667 355.645, 715.292 355.320, 714.833 355.603 C 714.057 356.083, 713.577 354.569, 713.906 352.676 C 713.985 352.222, 713.588 352.136, 713.025 352.485 C 712.088 353.064, 711.552 351.718, 711.906 349.676 C 711.985 349.222, 711.588 349.136, 711.025 349.485 C 710.105 350.053, 709.564 348.761, 709.882 346.750 C 709.947 346.338, 709.437 346.113, 708.750 346.250 C 708.062 346.388, 707.562 345.717, 707.637 344.761 C 707.712 343.804, 707.375 343.268, 706.887 343.570 C 706.082 344.067, 705.580 342.659, 705.882 340.750 C 705.947 340.338, 705.437 340.113, 704.750 340.250 C 704.062 340.388, 703.562 339.717, 703.637 338.761 C 703.712 337.804, 703.375 337.268, 702.887 337.570 C 702.082 338.067, 701.580 336.659, 701.882 334.750 C 701.947 334.338, 701.437 334.113, 700.750 334.250 C 700.062 334.388, 699.560 333.730, 699.632 332.789 C 699.705 331.848, 699.255 331.173, 698.632 331.289 C 698.010 331.405, 697.560 330.730, 697.632 329.789 C 697.705 328.848, 697.255 328.173, 696.632 328.289 C 696.010 328.405, 695.494 327.744, 695.487 326.821 C 695.480 325.897, 695.071 324.772, 694.577 324.321 C 694.057 323.846, 693.994 324.132, 694.426 325 C 694.837 325.825, 694.245 325.375, 693.109 324 C 691.035 321.488, 690.591 320.351, 690.965 318.500 C 691.076 317.950, 690.826 317.841, 690.409 318.258 C 689.428 319.239, 685.924 313.932, 686.711 312.658 C 687.040 312.126, 686.790 312.012, 686.155 312.405 C 685.124 313.042, 684.551 311.847, 684.882 309.750 C 684.947 309.338, 684.437 309.113, 683.750 309.250 C 683.062 309.388, 682.562 308.717, 682.637 307.761 C 682.712 306.804, 682.375 306.268, 681.887 306.570 C 681.082 307.067, 680.580 305.659, 680.882 303.750 C 680.947 303.338, 680.437 303.113, 679.750 303.250 C 679.062 303.388, 678.562 302.717, 678.637 301.761 C 678.712 300.804, 678.398 300.254, 677.937 300.539 C 676.961 301.142, 674.512 297.192, 674.503 295 C 674.500 294.175, 673.935 293.444, 673.249 293.375 C 672.562 293.306, 671.212 293.187, 670.250 293.110 C 668.744 292.989, 668.709 292.830, 670 291.970 C 671.048 291.273, 670.173 291.172, 667.097 291.638 C 664.420 292.043, 662.922 291.935, 663.277 291.361 C 663.615 290.813, 662.317 290.567, 660.180 290.774 C 657.346 291.047, 656.845 290.881, 658 290.050 C 659.116 289.248, 658.372 289.142, 655.097 289.638 C 652.021 290.104, 650.897 289.975, 651.369 289.212 C 651.834 288.459, 650.899 288.304, 648.367 288.715 C 645.960 289.106, 644.909 288.956, 645.326 288.281 C 645.744 287.606, 644.330 287.406, 641.232 287.701 C 637.647 288.042, 636.864 287.887, 638 287.062 C 639.125 286.244, 638.398 286.138, 635.097 286.638 C 632.107 287.091, 630.903 286.965, 631.347 286.247 C 631.781 285.545, 630.574 285.331, 627.750 285.611 C 624.541 285.928, 623.990 285.798, 625.500 285.079 C 626.938 284.394, 626.094 284.272, 622.500 284.646 C 619.099 284.999, 617.943 284.853, 618.885 284.190 C 619.832 283.523, 618.726 283.363, 615.385 283.684 C 611.924 284.015, 610.922 283.858, 611.948 283.144 C 612.976 282.429, 612.107 282.285, 608.948 282.648 C 605.907 282.998, 604.938 282.852, 605.885 282.187 C 606.835 281.521, 605.735 281.342, 602.385 281.620 C 598.736 281.922, 598.006 281.780, 599.500 281.057 C 600.958 280.351, 600.306 280.253, 597.097 280.696 C 593.701 281.166, 592.872 281.017, 593.472 280.045 C 594.047 279.115, 593.680 278.967, 592.067 279.479 C 589.231 280.379, 579.304 279.048, 581.006 277.996 C 581.701 277.567, 580.072 277.426, 577.385 277.684 C 573.694 278.037, 572.867 277.885, 574 277.062 C 575.125 276.244, 574.398 276.138, 571.097 276.638 C 568.107 277.091, 566.903 276.965, 567.347 276.247 C 567.783 275.541, 566.589 275.351, 563.750 275.675 C 560.829 276.008, 559.933 275.855, 560.885 275.187 C 561.830 274.524, 560.718 274.364, 557.385 274.684 C 553.924 275.015, 552.922 274.858, 553.948 274.144 C 554.976 273.429, 554.107 273.285, 550.948 273.648 C 547.444 274.051, 546.818 273.913, 548 272.999 C 549.208 272.064, 548.956 271.957, 546.710 272.448 C 542.847 273.293, 533.430 271.985, 535.167 270.846 C 535.961 270.325, 534.719 270.241, 532.097 270.638 C 529.420 271.043, 527.922 270.935, 528.277 270.361 C 528.615 269.813, 527.317 269.567, 525.180 269.774 C 522.619 270.021, 521.921 269.838, 522.885 269.172 C 523.817 268.528, 522.671 268.368, 519.385 268.684 C 516.063 269.002, 514.943 268.842, 515.885 268.184 C 516.822 267.529, 515.722 267.390, 512.485 267.755 C 508.717 268.179, 507.871 268.017, 508.505 266.992 C 509.048 266.113, 508.917 265.933, 508.101 266.437 C 506.243 267.586, 494.432 265.993, 496.124 264.822 C 497.090 264.153, 496.812 264.063, 495.192 264.520 C 492.062 265.404, 482.325 264.035, 484.069 262.957 C 484.806 262.502, 483.460 262.397, 481.045 262.721 C 478.112 263.114, 476.907 262.960, 477.347 262.247 C 477.781 261.545, 476.573 261.331, 473.750 261.611 C 470.541 261.928, 469.990 261.798, 471.500 261.079 C 472.938 260.394, 472.094 260.272, 468.500 260.646 C 464.958 261.014, 463.922 260.869, 464.948 260.151 C 465.976 259.431, 465.135 259.306, 462.045 259.721 C 459.425 260.072, 457.926 259.929, 458.277 259.361 C 458.615 258.813, 457.317 258.567, 455.180 258.774 C 452.619 259.021, 451.921 258.838, 452.885 258.172 C 453.817 257.528, 452.671 257.368, 449.385 257.684 C 446.063 258.002, 444.943 257.842, 445.885 257.184 C 446.832 256.522, 445.724 256.343, 442.385 256.620 C 438.789 256.918, 438.028 256.774, 439.500 256.075 C 440.933 255.395, 440.083 255.273, 436.500 255.646 C 432.958 256.014, 431.922 255.869, 432.948 255.151 C 433.976 254.431, 433.135 254.306, 430.045 254.721 C 427.425 255.072, 425.926 254.929, 426.277 254.361 C 426.617 253.811, 425.374 253.591, 423.293 253.834 C 421.010 254.101, 419.956 253.880, 420.364 253.220 C 420.779 252.549, 419.522 252.359, 416.750 252.675 C 413.510 253.044, 412.857 252.899, 414 252.065 C 415.132 251.240, 414.395 251.118, 411 251.567 C 407.699 252.003, 406.900 251.881, 408 251.109 C 409.113 250.328, 408.532 250.212, 405.750 250.659 C 403.110 251.083, 402 250.895, 402 250.022 C 402 249.222, 401.170 248.991, 399.656 249.372 C 397.987 249.790, 396.687 249.296, 395.146 247.656 C 393.956 246.389, 393.222 245.112, 393.515 244.818 C 393.808 244.525, 393.250 243.658, 392.274 242.893 C 390.635 241.606, 390.606 241.652, 391.898 243.500 C 392.667 244.600, 390.796 242.802, 387.740 239.505 C 384.684 236.208, 382.363 233.222, 382.581 232.869 C 382.799 232.515, 382.195 231.613, 381.239 230.863 C 379.635 229.606, 379.613 229.656, 380.950 231.500 C 381.747 232.600, 379.047 229.931, 374.950 225.569 C 370.852 221.207, 367.500 217.157, 367.500 216.569 C 367.500 215.981, 366.825 215.500, 366 215.500 C 365.175 215.500, 364.480 214.825, 364.455 214 C 364.430 213.175, 363.941 212.588, 363.369 212.695 C 362.797 212.803, 359.667 210.103, 356.414 206.697 L 350.500 200.504 356 205.502 L 361.500 210.500 356.590 205.303 C 353.890 202.445, 351.365 200.195, 350.981 200.303 C 349.776 200.642, 338.023 189.954, 338.268 188.742 C 338.395 188.109, 337.825 187.550, 337 187.500 C 336.175 187.450, 335.650 186.755, 335.833 185.955 C 336.017 185.155, 335.844 184.823, 335.449 185.217 C 334.638 186.029, 329.500 182.308, 329.500 180.909 C 329.500 180.409, 329.249 180.113, 328.941 180.250 C 328.049 180.650, 321.502 174.821, 321.478 173.604 C 321.465 172.997, 320.738 172.618, 319.861 172.763 C 318.984 172.908, 317.644 172.259, 316.883 171.321 C 315.687 169.847, 315.703 169.732, 317 170.468 C 317.894 170.976, 318.163 170.953, 317.667 170.410 C 317.208 169.910, 316.533 169.484, 316.167 169.465 C 314.443 169.373, 311.046 166.813, 311.260 165.767 C 311.392 165.121, 310.601 164.572, 309.503 164.547 C 308.404 164.521, 307.504 163.938, 307.503 163.250 C 307.501 162.563, 307.050 161.956, 306.500 161.901 C 304.291 161.684, 301.985 159.834, 302.627 158.795 C 303.002 158.188, 302.857 157.970, 302.304 158.312 C 301.029 159.100, 294.771 154.562, 295.763 153.570 C 296.169 153.165, 296.050 152.924, 295.500 153.035 C 293.198 153.500, 291.920 152.933, 292.601 151.750 C 292.997 151.063, 292.964 150.822, 292.529 151.215 C 291.506 152.138, 287.779 150.166, 288.461 149.063 C 288.746 148.602, 288.196 148.288, 287.239 148.363 C 286.283 148.438, 285.595 147.990, 285.711 147.368 C 285.827 146.745, 285.152 146.295, 284.211 146.368 C 283.270 146.440, 282.595 145.990, 282.711 145.368 C 282.827 144.745, 282.152 144.295, 281.211 144.368 C 280.270 144.440, 279.612 143.938, 279.750 143.250 C 279.887 142.563, 279.662 142.053, 279.250 142.118 C 277.153 142.449, 275.958 141.876, 276.595 140.845 C 277.037 140.131, 276.870 139.962, 276.156 140.403 C 274.772 141.259, 270.694 138.640, 271.756 137.577 C 272.165 137.168, 272.050 136.924, 271.500 137.035 C 269.467 137.445, 267.898 136.974, 268.430 136.113 C 268.732 135.625, 268.196 135.288, 267.239 135.363 C 266.283 135.438, 265.613 134.938, 265.750 134.250 C 265.887 133.562, 265.663 133.053, 265.250 133.118 C 263.265 133.432, 261.943 132.901, 262.493 132.011 C 262.856 131.424, 262.407 131.290, 261.388 131.681 C 260.308 132.096, 259.914 131.948, 260.325 131.283 C 260.697 130.682, 260.228 130.285, 259.239 130.363 C 258.283 130.438, 257.575 130.050, 257.666 129.500 C 257.758 128.950, 256.745 128.435, 255.416 128.356 L 253 128.212 253 222.524 M 251.439 285 C 251.439 300.125, 251.578 306.313, 251.748 298.750 C 251.917 291.188, 251.917 278.813, 251.748 271.250 C 251.578 263.688, 251.439 269.875, 251.439 285 M 596.380 400.452 C 596.074 401.251, 596.157 402.445, 596.566 403.107 C 597.066 403.917, 596.885 404.047, 596.010 403.506 C 595.032 402.902, 594.834 403.351, 595.211 405.321 C 595.521 406.943, 595.326 407.701, 594.698 407.313 C 594.077 406.930, 593.903 407.523, 594.249 408.845 C 594.607 410.213, 594.429 410.765, 593.762 410.353 C 593.087 409.936, 592.889 410.641, 593.211 412.321 C 593.521 413.943, 593.326 414.701, 592.698 414.313 C 592.077 413.930, 591.903 414.522, 592.249 415.844 C 592.559 417.030, 592.352 418, 591.790 418 C 591.227 418, 591.002 418.901, 591.290 420.001 C 591.597 421.177, 591.406 421.751, 590.825 421.392 C 589.430 420.529, 590.220 425.204, 591.742 426.814 C 592.426 427.536, 593.508 427.804, 594.147 427.409 C 594.919 426.932, 595.037 427.131, 594.498 428.003 C 593.894 428.980, 594.238 429.171, 595.845 428.751 C 597.032 428.440, 597.751 428.595, 597.442 429.093 C 596.929 429.924, 598.606 430.383, 601.739 430.270 C 602.421 430.246, 602.688 430.696, 602.333 431.270 C 601.926 431.929, 602.485 432.107, 603.845 431.751 C 605.228 431.389, 605.766 431.569, 605.345 432.251 C 604.924 432.933, 605.462 433.112, 606.845 432.751 C 608.228 432.389, 608.766 432.569, 608.345 433.251 C 607.924 433.933, 608.462 434.112, 609.845 433.751 C 611.032 433.440, 611.771 433.562, 611.487 434.021 C 610.789 435.150, 614.686 436.312, 616.146 435.410 C 616.919 434.932, 617.038 435.130, 616.498 436.003 C 615.894 436.980, 616.238 437.171, 617.845 436.751 C 619.241 436.386, 619.768 436.566, 619.337 437.263 C 618.916 437.944, 619.283 438.105, 620.336 437.701 C 621.252 437.350, 622 437.546, 622 438.138 C 622 438.730, 622.698 438.946, 623.552 438.618 C 624.558 438.232, 624.855 438.426, 624.396 439.169 C 623.914 439.949, 624.377 440.135, 625.845 439.751 C 627.032 439.440, 627.773 439.558, 627.492 440.013 C 626.790 441.149, 633.679 443.316, 635.135 442.417 C 635.905 441.941, 636.041 442.125, 635.529 442.953 C 634.949 443.891, 635.326 444.031, 637 443.500 C 638.533 443.013, 639.032 443.139, 638.566 443.893 C 637.937 444.911, 639.391 445.391, 642.739 445.270 C 643.421 445.246, 643.688 445.696, 643.333 446.270 C 642.926 446.929, 643.485 447.107, 644.845 446.751 C 646.032 446.440, 646.751 446.595, 646.442 447.093 C 645.929 447.924, 647.606 448.383, 650.739 448.270 C 651.421 448.246, 651.688 448.696, 651.333 449.270 C 650.926 449.929, 651.485 450.107, 652.845 449.751 C 654.032 449.440, 654.801 449.513, 654.555 449.912 C 653.894 450.980, 660.791 453.247, 662.149 452.408 C 662.919 451.932, 663.037 452.132, 662.498 453.003 C 661.894 453.980, 662.238 454.171, 663.845 453.751 C 665.228 453.389, 665.766 453.569, 665.345 454.251 C 664.924 454.933, 665.462 455.112, 666.845 454.751 C 668.032 454.440, 668.790 454.530, 668.530 454.951 C 667.890 455.986, 677.931 459.160, 679.257 458.341 C 679.917 457.933, 680.007 458.179, 679.498 459.003 C 678.894 459.980, 679.237 460.171, 680.844 459.751 C 682.030 459.441, 683 459.643, 683 460.201 C 683 460.758, 683.698 460.946, 684.552 460.618 C 685.406 460.291, 685.859 460.420, 685.559 460.905 C 684.771 462.179, 690.099 463.301, 691.289 462.111 C 691.955 461.445, 691.489 461.302, 689.894 461.681 C 687.665 462.211, 687.626 462.152, 689.322 460.836 C 690.690 459.774, 690.968 458.722, 690.440 456.616 C 689.903 454.479, 689.506 454.131, 688.773 455.155 C 688.070 456.139, 687.978 455.989, 688.433 454.597 C 689.170 452.342, 687.203 445.756, 686.013 446.492 C 685.558 446.773, 685.440 446.032, 685.751 444.845 C 686.171 443.238, 685.980 442.894, 685.003 443.498 C 684.125 444.041, 683.932 443.920, 684.418 443.132 C 685.452 441.460, 682.092 431.825, 680.763 432.647 C 680.125 433.041, 679.982 432.837, 680.410 432.146 C 681.312 430.686, 680.150 426.789, 679.021 427.487 C 678.562 427.771, 678.440 427.032, 678.751 425.845 C 679.112 424.462, 678.933 423.924, 678.251 424.345 C 677.569 424.766, 677.389 424.228, 677.751 422.845 C 678.112 421.462, 677.933 420.924, 677.251 421.345 C 676.569 421.766, 676.389 421.228, 676.751 419.845 C 677.171 418.238, 676.980 417.894, 676.003 418.498 C 675.131 419.037, 674.932 418.919, 675.409 418.147 C 676.542 416.315, 673.332 413.760, 670.878 414.539 C 669.319 415.033, 668.957 414.879, 669.523 413.962 C 670.092 413.042, 669.603 412.843, 667.679 413.211 C 666.094 413.514, 665.302 413.320, 665.672 412.721 C 666.046 412.117, 665.082 411.908, 663.195 412.185 C 661.496 412.434, 660.303 412.319, 660.544 411.929 C 661.191 410.881, 654.250 409.786, 651.831 410.554 C 650.502 410.975, 649.983 410.837, 650.394 410.171 C 651.180 408.900, 642.698 407.450, 640.916 408.552 C 640.080 409.069, 639.948 408.893, 640.501 407.998 C 641.138 406.967, 640.479 406.822, 637.405 407.316 C 634.558 407.773, 633.906 407.663, 635 406.907 C 636.128 406.128, 635.587 405.959, 632.820 406.226 C 630.732 406.428, 629.388 406.182, 629.712 405.657 C 630.036 405.132, 628.945 404.928, 627.195 405.185 C 625.383 405.451, 624.349 405.244, 624.695 404.685 C 625.040 404.125, 624.007 403.919, 622.195 404.185 C 620.338 404.457, 619.346 404.249, 619.708 403.663 C 620.084 403.055, 618.842 402.924, 616.405 403.316 C 613.520 403.779, 612.892 403.668, 614 402.889 C 615.114 402.106, 614.471 401.977, 611.500 402.389 C 608.567 402.795, 607.900 402.667, 609 401.907 C 610.128 401.128, 609.587 400.959, 606.820 401.226 C 604.720 401.429, 603.387 401.183, 603.715 400.653 C 604.057 400.099, 602.716 399.996, 600.395 400.399 C 597.601 400.883, 596.924 400.785, 598 400.052 C 599.057 399.332, 599.122 399.026, 598.219 399.015 C 597.514 399.007, 596.686 399.653, 596.380 400.452" stroke="none" fill="#93c463" fill-rule="evenodd"/></svg>